<svg width="1440" height="576" viewBox="0 0 1440 576" fill="none" xmlns="http://www.w3.org/2000/svg">
<path d="M0 15C0 15 42.8094 -7.43616 67 3.5C115 25.2 192 100 288 100.3C384 100 480 -17.5 576 3.5C672 24.5 768 186 864 201.7C960 218 1028.5 132 1124.5 100.3C1220.5 68 1287.5 126.7 1335.5 121L1440 79V303H1392C1344 303 1248 303 1152 303C1056 303 960 303 864 303C768 303 672 303 576 303C480 303 384 303 288 303C192 303 96 303 48 303H0V15Z" fill="white"/>
<path d="M0 73L48 94.3C96 116 192 158 288 158.3C384 158 480 116 576 137C672 158 768 244 864 259.7C960 276 1056 222 1152 190.3C1248 158 1316 196 1364 190.3C1400 186.025 1440 137 1440 137V361H1392C1344 361 1248 361 1152 361C1056 361 960 361 864 361C768 361 672 361 576 361C480 361 384 361 288 361C192 361 96 361 48 361H0V73Z" fill="#A5DCFF"/>
<rect y="262" width="1440" height="314" fill="#A5DCFF"/>
</svg>
